<svg width="158" height="158" viewBox="0 0 158 158" fill="none" xmlns="http://www.w3.org/2000/svg">
<path d="M0 15.8C0 7.0739 7.0739 0 15.8 0H142.2C150.926 0 158 7.0739 158 15.8V142.2C158 150.926 150.926 158 142.2 158H15.8C7.0739 158 0 150.926 0 142.2V15.8Z" fill="#0C232A"/>
<path d="M78.3522 145.644C91.6613 145.644 104.672 141.698 115.738 134.304C126.804 126.909 135.429 116.4 140.522 104.104C145.615 91.8078 146.948 78.2776 144.351 65.2242C141.755 52.1708 135.346 40.1804 125.935 30.7695C116.524 21.3585 104.534 14.9495 91.4803 12.353C78.4268 9.75655 64.8966 11.0892 52.6006 16.1823C40.3045 21.2755 29.7949 29.9005 22.4008 40.9667C15.0066 52.0328 11.06 65.0431 11.06 78.3522C11.0809 96.1928 18.1773 113.297 30.7925 125.912C43.4077 138.527 60.5116 145.624 78.3522 145.644ZM76.7722 14.2674V22.0094C76.7722 22.4285 76.9387 22.8304 77.235 23.1267C77.5313 23.423 77.9332 23.5894 78.3522 23.5894C78.7712 23.5894 79.1731 23.423 79.4694 23.1267C79.7657 22.8304 79.9322 22.4285 79.9322 22.0094V14.2674C96.3759 14.6912 112.029 21.4126 123.661 33.0439C135.292 44.6752 142.013 60.3285 142.437 76.7722H134.695C134.276 76.7722 133.874 76.9387 133.578 77.235C133.281 77.5313 133.115 77.9332 133.115 78.3522C133.115 78.7713 133.281 79.1732 133.578 79.4695C133.874 79.7658 134.276 79.9322 134.695 79.9322H142.437C142.013 96.376 135.292 112.029 123.661 123.661C112.029 135.292 96.3759 142.013 79.9322 142.437V134.695C79.9322 134.276 79.7657 133.874 79.4694 133.578C79.1731 133.282 78.7712 133.115 78.3522 133.115C77.9332 133.115 77.5313 133.282 77.235 133.578C76.9387 133.874 76.7722 134.276 76.7722 134.695V142.437C60.3285 142.013 44.6752 135.292 33.0439 123.661C21.4125 112.029 14.6912 96.376 14.2674 79.9322H22.0094C22.4284 79.9322 22.8303 79.7658 23.1266 79.4695C23.4229 79.1732 23.5894 78.7713 23.5894 78.3522C23.5894 77.9332 23.4229 77.5313 23.1266 77.235C22.8303 76.9387 22.4284 76.7722 22.0094 76.7722H14.2674C14.6912 60.3285 21.4125 44.6752 33.0439 33.0439C44.6752 21.4126 60.3285 14.6912 76.7722 14.2674Z" fill="#D36716"/>
<path d="M46.7522 111.532C47.0358 111.532 47.3142 111.456 47.558 111.311L76.8828 93.6782C83.7697 89.5364 89.5364 83.7697 93.6782 76.8828L111.232 47.637C111.411 47.3352 111.484 46.9824 111.44 46.6344C111.396 46.2863 111.238 45.9627 110.99 45.7147C110.742 45.4666 110.418 45.3082 110.07 45.2643C109.722 45.2204 109.369 45.2937 109.067 45.4724L79.8216 63.0262C72.9344 67.1675 67.1675 72.9343 63.0262 79.8216L45.4724 109.067C45.3131 109.303 45.2204 109.577 45.2039 109.861C45.1875 110.145 45.248 110.428 45.379 110.681C45.5101 110.933 45.7068 111.145 45.9485 111.295C46.1902 111.445 46.4679 111.527 46.7522 111.532ZM65.7122 81.5122C69.6001 75.0269 75.0269 69.6001 81.5122 65.7122L105.212 51.4922L90.9922 75.1922C87.1044 81.6776 81.6776 87.1044 75.1922 90.9922L51.4922 105.212L65.7122 81.5122Z" fill="#D36716"/>
<path d="M78.3522 82.4918C79.1754 82.495 79.981 82.2535 80.6667 81.7981C81.3525 81.3427 81.8876 80.6939 82.204 79.934C82.5205 79.174 82.6041 78.3372 82.4443 77.5297C82.2844 76.7221 81.8884 75.9803 81.3063 75.3982C80.7242 74.8161 79.9823 74.42 79.1748 74.2601C78.3672 74.1003 77.5304 74.1839 76.7705 74.5004C76.0105 74.8169 75.3617 75.3519 74.9063 76.0377C74.4509 76.7235 74.2095 77.529 74.2126 78.3522C74.2167 79.4488 74.6542 80.4994 75.4296 81.2748C76.2051 82.0502 77.2556 82.4877 78.3522 82.4918ZM78.3522 77.3568C78.5497 77.3537 78.7437 77.4094 78.9094 77.5169C79.0752 77.6243 79.2052 77.7787 79.283 77.9602C79.3608 78.1418 79.3828 78.3424 79.3461 78.5366C79.3095 78.7307 79.216 78.9095 79.0774 79.0503C78.9389 79.1911 78.7616 79.2875 78.5681 79.3272C78.3746 79.3669 78.1736 79.3481 77.9908 79.2733C77.808 79.1984 77.6516 79.0709 77.5415 78.9069C77.4314 78.7428 77.3726 78.5498 77.3726 78.3522C77.3726 78.091 77.4753 77.8401 77.6585 77.6539C77.8418 77.4677 78.0909 77.361 78.3522 77.3568Z" fill="#D36716"/>
</svg>
