<svg width="94" height="94" viewBox="0 0 94 94" fill="none" xmlns="http://www.w3.org/2000/svg">
<path d="M92.7155 16.668H63.5475C62.9655 16.668 62.5045 17.125 62.5045 17.711C62.5045 18.293 62.9615 18.754 63.5475 18.754H91.6725V42.047C91.653 42.047 91.61 42.0665 91.5905 42.0899C89.3835 43.9454 85.946 44.2774 83.4225 42.9024C82.692 42.5079 82.028 41.9024 81.317 41.2579C80.1725 40.1954 78.985 39.1134 77.2975 38.7774C74.778 38.2774 72.9655 39.547 71.2155 40.7774C69.61 41.9024 67.946 43.0704 65.5475 43.0704C63.8795 43.0704 61.442 42.6954 59.2975 40.9024C57.317 39.2579 55.3795 38.5079 52.9655 38.4844C51.4225 38.5274 49.86 38.9219 48.403 39.3594C46.5085 39.9415 44.735 40.4649 43.153 39.8594C41.446 39.1915 40.403 37.2774 39.5905 35.4844L39.4225 35.129C38.5475 33.1915 37.5475 30.9845 35.567 29.6915C34.399 28.8985 33.11 28.5665 31.8365 28.254C30.7545 27.9844 29.7115 27.711 28.856 27.1915C27.688 26.4844 25.9185 24.422 26.688 18.754H34.3755C34.9575 18.754 35.4185 18.2969 35.4185 17.711C35.4185 17.1289 34.9615 16.668 34.3755 16.668H14.4805C13.961 13.1485 10.961 10.418 7.293 10.418C3.2735 10.418 0 13.6875 0 17.711V86.461C0 90.4805 3.2695 93.754 7.293 93.754H92.711C93.293 93.754 93.754 93.2969 93.754 92.711L93.7579 17.707C93.7579 17.1249 93.3009 16.664 92.7149 16.664L92.7155 16.668ZM34.2585 48.23C34.528 48.73 34.3405 49.355 33.821 49.6245C32.903 50.1245 31.989 50.2924 31.0905 50.2924C29.903 50.2924 28.778 49.9995 27.7155 49.7104C26.0085 49.2729 24.5475 48.8784 23.11 49.6284C22.61 49.8979 21.9655 49.7104 21.7155 49.2104C21.446 48.6909 21.6335 48.0659 22.1335 47.7924C24.278 46.6479 26.3835 47.2104 28.2585 47.7104C29.9655 48.1479 31.4265 48.5424 32.864 47.7924C33.364 47.5229 33.989 47.7104 34.2585 48.23ZM20.3635 42.6441C22.508 41.4996 24.6135 42.062 26.469 42.5386C28.176 42.9956 29.6565 43.3941 31.0745 42.6441C31.5745 42.3511 32.1995 42.562 32.469 43.062C32.7385 43.5816 32.551 44.2065 32.051 44.48C31.1135 44.98 30.1955 45.148 29.301 45.148C28.1135 45.148 26.9885 44.855 25.926 44.566C24.219 44.1089 22.758 43.7339 21.3205 44.4839C20.8205 44.7535 20.1955 44.566 19.926 44.0464C19.6565 43.5464 19.844 42.9214 20.3635 42.6519L20.3635 42.6441ZM2.0905 81.3741V17.7061C2.0905 14.8311 4.4225 12.4991 7.2975 12.4991C10.1725 12.4991 12.5045 14.8311 12.5045 17.7061V81.3741C11.1725 80.0186 9.3365 79.1671 7.2975 79.1671C5.2545 79.1671 3.4225 80.0225 2.0905 81.3741ZM7.3014 89.5811C5.5709 89.5811 4.1764 88.1866 4.1764 86.4561C4.1764 85.874 4.63343 85.4131 5.2194 85.4131C5.80143 85.4131 6.2624 85.8701 6.2624 86.4561C6.2624 87.0381 6.71943 87.4991 7.3054 87.4991C7.88743 87.4991 8.3484 87.9561 8.3484 88.5421C8.3484 89.1241 7.89137 89.5851 7.3054 89.5851L7.3014 89.5811ZM54.1534 68.2061C53.6729 68.8311 52.9659 69.3116 52.1964 69.8116L51.7159 70.1241C50.7159 70.792 49.5089 71.7491 49.0284 73.1671C48.6105 74.4366 48.8605 75.6866 49.0714 76.7921C49.2159 77.585 49.3839 78.3351 49.2784 78.9991C49.0909 80.1866 47.6339 81.7921 46.1964 82.3546C42.7589 83.7101 40.3409 87.4171 40.0089 91.6671H12.3839C13.7394 90.3351 14.5909 88.4991 14.5909 86.4601V61.3151C14.7355 61.2526 14.8839 61.1705 14.9855 61.0455C15.88 59.94 17.3175 59.276 18.7355 59.315C20.13 59.358 21.548 60.065 22.38 61.19C22.7354 61.6705 23.0245 62.233 23.3175 62.815C23.8604 63.858 24.3995 64.94 25.423 65.733C27.4855 67.3385 30.38 66.8385 32.1925 65.6901C34.0675 64.5026 35.337 62.6471 36.462 61.0026C37.462 59.5456 38.6065 57.8971 40.1495 56.9596C41.419 56.1666 43.337 55.8776 44.5245 56.8541C45.4424 57.6041 45.8175 58.9166 46.1925 60.3346L46.3175 60.7096C46.755 62.2916 47.587 64.5026 49.63 65.3151C50.4854 65.6706 51.3995 65.6901 52.212 65.7331C53.3175 65.776 54.0245 65.8151 54.3995 66.276C54.7745 66.7565 54.587 67.6315 54.1495 68.2135L54.1534 68.2061ZM55.3409 51.7681C55.0714 51.2681 55.2589 50.6431 55.7589 50.3736C57.9269 49.2291 60.0284 49.7915 61.8839 50.2915C63.5909 50.729 65.0519 51.1236 66.4894 50.3736C66.9894 50.104 67.6144 50.2915 67.8839 50.7915C68.1534 51.3111 67.9659 51.936 67.4659 52.2095C66.5284 52.7095 65.6104 52.8775 64.7159 52.8775C63.5284 52.8775 62.4034 52.5845 61.3409 52.2955C59.6339 51.858 58.1729 51.4634 56.7589 52.2134C56.2394 52.483 55.6144 52.2955 55.3409 51.7759V51.7681ZM58.5284 57.354C58.0284 57.6235 57.4034 57.436 57.1339 56.936C56.8644 56.4165 57.0519 55.7915 57.5519 55.518C59.6964 54.3735 61.8019 54.936 63.6769 55.436C65.3839 55.893 66.8449 56.268 68.2589 55.518C68.7784 55.2485 69.4034 55.436 69.6769 55.9555C69.9464 56.4555 69.7589 57.0805 69.2589 57.35C68.3214 57.85 67.4034 58.018 66.5089 58.018C65.3214 58.018 64.1964 57.725 63.1339 57.4555C61.4269 56.9984 59.9659 56.6 58.5284 57.35V57.354ZM91.6764 91.666H62.3214C61.0089 89.8965 60.4659 87.4785 60.9464 85.334C61.4269 83.1035 63.0089 81.1035 65.0284 80.084L65.5284 79.834C66.3214 79.459 67.2354 79.041 67.8604 78.1465C68.6924 76.9395 68.6729 75.3145 67.7979 73.3145L67.5909 72.8574C67.1338 71.877 66.7159 70.9394 66.8604 70.1074C67.1299 68.4004 69.6299 67.6504 70.3799 67.4629C70.7119 67.3809 71.0244 67.3184 71.3604 67.2325C73.0284 66.8575 74.9034 66.4395 76.2784 65.088C77.4854 63.881 77.9464 62.295 78.3839 60.7755C78.7589 59.4435 79.1143 58.17 79.9464 57.3575C80.6339 56.6504 81.7159 56.2325 83.0089 56.17C84.3214 56.1075 86.6769 56.1895 91.6769 57.627V91.67L91.6764 91.666Z" fill="white"/>
<path d="M38.5515 76.301L41.0515 78.176C41.239 78.3166 41.4578 78.383 41.6765 78.383C41.9929 78.383 42.3054 78.2385 42.5125 77.9651C42.8601 77.5041 42.7664 76.8518 42.3054 76.5081L38.5554 73.6956V71.6136L41.0554 73.4886C41.2429 73.6292 41.4617 73.6956 41.6804 73.6956C41.9969 73.6956 42.3094 73.5511 42.5164 73.2776C42.864 72.8167 42.7703 72.1643 42.3094 71.8206L38.1414 68.6956C37.7703 68.4183 37.2624 68.4183 36.8914 68.6956L32.7234 71.8206C32.2624 72.1644 32.1687 72.8167 32.5163 73.2776C32.8601 73.7386 33.5124 73.8323 33.9733 73.4846L36.4733 71.6096V73.6916L32.7233 76.5041C32.2624 76.8479 32.1686 77.5002 32.5163 77.9611C32.86 78.4221 33.5124 78.5119 33.9733 78.1682L36.4733 76.2932V81.5002C36.4733 82.0744 36.9381 82.5432 37.5163 82.5432C38.0905 82.5432 38.5593 82.0783 38.5593 81.5002V76.2932L38.5515 76.301Z" fill="white"/>
<path d="M27.5085 76.613C27.696 76.7536 27.9148 76.82 28.1335 76.82C28.4499 76.82 28.7624 76.6755 28.9694 76.4021C29.3171 75.9411 29.2234 75.2888 28.7624 74.9451L24.5944 71.8201C24.2233 71.5427 23.7155 71.5427 23.3444 71.8201L19.1764 74.9451C18.7155 75.2888 18.6217 75.9412 18.9694 76.4021C19.3131 76.863 19.9655 76.9528 20.4264 76.6091L22.9264 74.7341V76.8161L19.1764 79.6286C18.7154 79.9723 18.6217 80.6247 18.9694 81.0856C19.3131 81.5465 19.9654 81.6364 20.4264 81.2926L22.9264 79.4176V84.6246C22.9264 85.1988 23.3912 85.6676 23.9694 85.6676C24.5436 85.6676 25.0124 85.2028 25.0124 84.6246V79.4176L27.5124 81.2926C27.6999 81.4332 27.9186 81.4997 28.1374 81.4997C28.4538 81.4997 28.7663 81.3551 28.9733 81.0817C29.321 80.6207 29.2272 79.9684 28.7663 79.6247L25.0163 76.8122V74.7302L27.5163 76.6052L27.5085 76.613Z" fill="white"/>
<path d="M81.0825 79.629C80.9106 79.3712 80.6294 79.1993 80.3169 79.172C80.0239 79.1446 79.6997 79.2501 79.4771 79.4727L76.0474 82.9024L74.6997 81.5547C74.2934 81.1485 73.6333 81.1485 73.227 81.5547L69.059 85.7227C68.6527 86.129 68.6527 86.7891 69.059 87.1954C69.4652 87.6017 70.1254 87.6017 70.5317 87.1954L73.9614 83.7657L75.3091 85.1134C75.7153 85.5197 76.3755 85.5197 76.7818 85.1134L80.0474 81.8439L83.5083 87.0353C83.7114 87.3361 84.0395 87.5002 84.3755 87.5002C84.5747 87.5002 84.7778 87.4416 84.9536 87.3244C85.4301 87.0041 85.563 86.3596 85.2426 85.8791L81.0746 79.6291L81.0825 79.629Z" fill="white"/>
<path d="M85.2505 69.215C85.0786 68.9572 84.7974 68.7853 84.4849 68.758C84.188 68.7228 83.8677 68.8361 83.645 69.0587L80.2153 72.4884L78.8676 71.1407C78.4614 70.7345 77.8012 70.7345 77.3949 71.1407L73.2269 75.3087C72.8207 75.715 72.8207 76.3751 73.2269 76.7814C73.6332 77.1877 74.2933 77.1877 74.6996 76.7814L78.1293 73.3517L79.477 74.6994C79.8833 75.1057 80.5434 75.1057 80.9497 74.6994L84.2153 71.4299L87.6762 76.6213C87.8794 76.9221 88.2075 77.0862 88.5434 77.0862C88.7426 77.0862 88.9458 77.0276 89.1215 76.9104C89.5981 76.5901 89.7309 75.9456 89.4106 75.4651L85.2426 69.2151L85.2505 69.215Z" fill="white"/>
<path d="M48.9655 0C42.653 0 37.5085 5.1445 37.5085 11.457C37.5085 22.25 47.8835 30.664 48.3205 31.019C48.508 31.1635 48.7385 31.2495 48.965 31.2495C49.1955 31.2495 49.422 31.1674 49.6095 31.019C50.047 30.6635 60.4215 22.2495 60.4215 11.457C60.4215 5.1445 55.278 0 48.9655 0ZM48.9655 16.668C46.0905 16.668 43.7585 14.336 43.7585 11.461C43.7585 8.586 46.0905 6.254 48.9655 6.254C51.8405 6.254 54.1725 8.586 54.1725 11.461C54.1725 14.336 51.8405 16.668 48.9655 16.668Z" fill="white"/>
<path d="M83.1954 33.832L76.9454 23.414C76.7579 23.1015 76.4259 22.914 76.0509 22.914H65.6329C65.2579 22.914 64.9259 23.1015 64.7384 23.414L58.4884 33.832C58.3009 34.164 58.3009 34.5625 58.4689 34.8945C58.6564 35.207 59.0118 35.414 59.3868 35.414H82.3048C82.6798 35.414 83.0353 35.207 83.2228 34.8945C83.3908 34.5625 83.3908 34.164 83.2033 33.832H83.1954ZM61.2154 33.332L65.6334 25.9765L70.0514 33.332H61.2154Z" fill="white"/>
</svg>
